<svg width="134" height="29" viewBox="0 0 134 29" fill="none" xmlns="http://www.w3.org/2000/svg">
<path d="M104.981 3.6583H106.941V7.2283C107.492 6.49096 108.239 6.1223 109.181 6.1223C110.199 6.1223 110.959 6.46763 111.463 7.1583C111.967 7.84896 112.219 8.7963 112.219 10.0003C112.219 10.579 112.145 11.1063 111.995 11.5823C111.855 12.0583 111.645 12.469 111.365 12.8143C111.095 13.1503 110.763 13.4116 110.371 13.5983C109.979 13.785 109.536 13.8783 109.041 13.8783C108.649 13.8783 108.271 13.8036 107.907 13.6543C107.543 13.505 107.203 13.2343 106.885 12.8423V13.6543H104.981V3.6583ZM106.927 10.0563C106.927 10.5323 106.965 10.915 107.039 11.2043C107.123 11.4843 107.254 11.713 107.431 11.8903C107.618 12.0583 107.805 12.1703 107.991 12.2263C108.187 12.273 108.383 12.2963 108.579 12.2963C108.794 12.2963 108.999 12.2543 109.195 12.1703C109.391 12.0863 109.559 11.9556 109.699 11.7783C109.849 11.5916 109.965 11.3536 110.049 11.0643C110.133 10.775 110.175 10.425 110.175 10.0143C110.175 9.58496 110.133 9.22563 110.049 8.9363C109.975 8.64696 109.867 8.41363 109.727 8.2363C109.587 8.04963 109.419 7.91896 109.223 7.8443C109.037 7.7603 108.836 7.7183 108.621 7.7183C108.379 7.7183 108.169 7.75096 107.991 7.8163C107.814 7.88163 107.641 7.9843 107.473 8.1243C107.287 8.30163 107.147 8.52563 107.053 8.7963C106.969 9.06696 106.927 9.4123 106.927 9.8323V10.0563ZM120.116 11.3723C119.985 12.1936 119.654 12.819 119.122 13.2483C118.599 13.6683 117.834 13.8783 116.826 13.8783C115.613 13.8783 114.698 13.5423 114.082 12.8703C113.475 12.1983 113.172 11.2463 113.172 10.0143C113.172 9.3983 113.261 8.8523 113.438 8.3763C113.615 7.89096 113.863 7.4803 114.18 7.1443C114.507 6.8083 114.894 6.5563 115.342 6.3883C115.79 6.21096 116.285 6.1223 116.826 6.1223C117.946 6.1223 118.786 6.4443 119.346 7.0883C119.915 7.7323 120.2 8.6003 120.2 9.6923V10.4763H115.132C115.151 11.0643 115.3 11.5263 115.58 11.8623C115.86 12.189 116.28 12.3523 116.84 12.3523C117.615 12.3523 118.072 12.0256 118.212 11.3723H120.116ZM118.31 9.1883C118.31 8.6843 118.184 8.2923 117.932 8.0123C117.689 7.7323 117.307 7.5923 116.784 7.5923C116.523 7.5923 116.294 7.6343 116.098 7.7183C115.902 7.8023 115.734 7.91896 115.594 8.0683C115.463 8.2083 115.361 8.3763 115.286 8.5723C115.211 8.75896 115.169 8.9643 115.16 9.1883H118.31ZM121.836 7.8723H120.688V6.3463H121.836V4.4003H123.796V6.3463H125.476V7.8723H123.796V11.2463C123.796 11.629 123.875 11.8903 124.034 12.0303C124.193 12.161 124.398 12.2263 124.65 12.2263C124.781 12.2263 124.911 12.2216 125.042 12.2123C125.182 12.1936 125.317 12.1656 125.448 12.1283L125.728 13.5703C125.457 13.6543 125.191 13.7103 124.93 13.7383C124.678 13.7756 124.435 13.7943 124.202 13.7943C123.399 13.7943 122.802 13.603 122.41 13.2203C122.027 12.8376 121.836 12.1936 121.836 11.2883V7.8723ZM130.753 12.7303C130.464 13.057 130.137 13.323 129.773 13.5283C129.418 13.7336 128.956 13.8363 128.387 13.8363C128.06 13.8363 127.748 13.7943 127.449 13.7103C127.16 13.6263 126.903 13.4956 126.679 13.3183C126.464 13.141 126.292 12.917 126.161 12.6463C126.03 12.3663 125.965 12.035 125.965 11.6523C125.965 11.1483 126.077 10.7376 126.301 10.4203C126.525 10.103 126.819 9.85563 127.183 9.6783C127.547 9.50096 127.953 9.37496 128.401 9.3003C128.858 9.22563 129.32 9.17896 129.787 9.1603L130.725 9.1183V8.7543C130.725 8.3063 130.599 7.9983 130.347 7.8303C130.104 7.6623 129.815 7.5783 129.479 7.5783C128.704 7.5783 128.261 7.8723 128.149 8.4603L126.357 8.2923C126.488 7.52696 126.824 6.9763 127.365 6.6403C127.906 6.29496 128.634 6.1223 129.549 6.1223C130.109 6.1223 130.585 6.1923 130.977 6.3323C131.369 6.46296 131.682 6.6543 131.915 6.9063C132.158 7.1583 132.33 7.4663 132.433 7.8303C132.545 8.18496 132.601 8.5863 132.601 9.0343V13.6543H130.753V12.7303ZM130.711 10.3923L129.843 10.4343C129.432 10.453 129.101 10.495 128.849 10.5603C128.597 10.6256 128.401 10.7096 128.261 10.8123C128.13 10.9056 128.042 11.0176 127.995 11.1483C127.948 11.279 127.925 11.4236 127.925 11.5823C127.925 11.825 128.009 12.0163 128.177 12.1563C128.345 12.2963 128.578 12.3663 128.877 12.3663C129.381 12.3663 129.792 12.2496 130.109 12.0163C130.286 11.8856 130.431 11.7223 130.543 11.5263C130.655 11.321 130.711 11.069 130.711 10.7703V10.3923Z" fill="#8C43EC"/>
<g clip-path="url(#clip0_3105_105)">
<path d="M37.763 7.85352C41.4904 7.85352 43.7408 9.97178 43.7408 13.3921C43.7408 16.7425 41.4904 18.9268 37.763 18.9268H35.4038V23.2955H31.6104V7.85352H37.763ZM37.3744 15.7941C38.9835 15.7941 39.9357 14.9118 39.9357 13.4349C39.9357 11.9579 38.9835 11.0756 37.3744 11.0756H35.3377V15.7941H37.3744Z" fill="white"/>
<path d="M45.1992 8.51389C45.1992 7.23516 46.0621 6.41895 47.4069 6.41895C48.7517 6.41895 49.5679 7.23516 49.5679 8.51389C49.5835 8.79882 49.5383 9.08381 49.4353 9.34995C49.3324 9.61609 49.174 9.85731 48.9708 10.0576C48.7675 10.2579 48.5241 10.4127 48.2564 10.5118C47.9888 10.6108 47.7032 10.6519 47.4185 10.6322C46.0621 10.6322 45.1992 9.79263 45.1992 8.51389ZM45.5879 23.2835V11.9109H49.1831V23.2951L45.5879 23.2835Z" fill="white"/>
<path d="M51.3555 17.6052C51.3555 14.1072 53.8702 11.6235 57.446 11.6235C58.3425 11.594 59.235 11.7558 60.064 12.0983C60.8931 12.4408 61.6396 12.956 62.2538 13.6097L60.3105 15.8407C59.614 15.1407 58.6741 14.7368 57.6869 14.7135C56.0545 14.7135 54.9274 15.9067 54.9274 17.6052C54.9274 19.3037 56.0079 20.4931 57.7064 20.4931C58.2388 20.4961 58.7647 20.3764 59.2433 20.1431C59.7219 19.9099 60.1403 19.5695 60.466 19.1483L62.5376 21.2665C61.9277 22.0243 61.1497 22.6296 60.2653 23.0344C59.3808 23.4392 58.4142 23.6323 57.4421 23.5986C53.8702 23.583 51.3555 21.1111 51.3555 17.6052Z" fill="white"/>
<path d="M63.1826 17.6052C63.1826 14.1072 65.6973 11.6235 69.2731 11.6235C70.1696 11.594 71.0621 11.7558 71.8912 12.0983C72.7202 12.4408 73.4667 12.956 74.081 13.6097L72.1376 15.8407C71.44 15.1401 70.4986 14.7362 69.5102 14.7135C67.8778 14.7135 66.7545 15.9067 66.7545 17.6052C66.7545 19.3037 67.835 20.4931 69.5335 20.4931C70.0659 20.4961 70.5919 20.3764 71.0705 20.1431C71.5491 19.9099 71.9675 19.5695 72.2931 19.1483L74.3647 21.2665C73.7549 22.0243 72.9769 22.6296 72.0924 23.0344C71.208 23.4392 70.2413 23.6323 69.2692 23.5986C65.6857 23.583 63.1826 21.1111 63.1826 17.6052Z" fill="white"/>
<path d="M75.0137 17.6047C75.0137 14.0289 77.5711 11.623 81.3646 11.623C85.158 11.623 87.6999 14.0289 87.6999 17.6047C87.6999 21.1805 85.1192 23.5825 81.3607 23.5825C77.6022 23.5825 75.0137 21.1766 75.0137 17.6047ZM84.1475 17.6047C84.1475 15.8829 82.9815 14.713 81.3646 14.713C79.7477 14.713 78.5661 15.879 78.5661 17.6047C78.5661 19.3304 79.7322 20.4926 81.3646 20.4926C82.997 20.4926 84.1436 19.346 84.1436 17.6047H84.1475Z" fill="white"/>
<path d="M101.176 16.1899V23.2949H97.5803V17.1616C97.5803 15.708 96.9624 14.9112 95.6836 14.9112C94.2689 14.9112 93.4526 15.8596 93.4526 17.3598V23.2949H89.8574V11.9106H93.1456L93.1883 13.4653C93.6376 12.9063 94.2097 12.4583 94.8602 12.1563C95.5107 11.8543 96.2221 11.7064 96.939 11.7241C99.5665 11.7357 101.176 13.5897 101.176 16.1899Z" fill="white"/>
<path d="M103.387 21.5536C103.364 21.1427 103.466 20.7345 103.678 20.3818C103.889 20.0291 104.202 19.7481 104.576 19.5752C104.949 19.4022 105.366 19.3453 105.772 19.4118C106.178 19.4782 106.555 19.665 106.854 19.9479C107.152 20.2309 107.359 20.597 107.448 20.9988C107.536 21.4007 107.502 21.8199 107.35 22.2021C107.197 22.5844 106.934 22.9121 106.593 23.1429C106.253 23.3738 105.851 23.4971 105.439 23.4969C105.175 23.5117 104.91 23.4724 104.662 23.3814C104.413 23.2904 104.186 23.1496 103.994 22.9677C103.802 22.7857 103.649 22.5664 103.544 22.3233C103.44 22.0801 103.386 21.8182 103.387 21.5536Z" fill="white"/>
<path d="M24.7235 23.459H0.633536C0.283644 23.459 0 23.7426 0 24.0925V28.3679C0 28.7178 0.283644 29.0015 0.633536 29.0015H24.7235C25.0734 29.0015 25.357 28.7178 25.357 28.3679V24.0925C25.357 23.7426 25.0734 23.459 24.7235 23.459Z" fill="white"/>
<path d="M8.96248 6.05373C9.67294 6.05296 10.3677 6.26293 10.9588 6.65708C11.5499 7.05124 12.0108 7.61186 12.2832 8.26802C12.5556 8.92419 12.6273 9.64641 12.4892 10.3433C12.351 11.0402 12.0093 11.6805 11.5072 12.1831C11.0051 12.6858 10.3652 13.0282 9.66843 13.1671C8.97167 13.306 8.24938 13.2351 7.59292 12.9634C6.93646 12.6917 6.37534 12.2314 5.98055 11.6407C5.58576 11.05 5.37503 10.3555 5.37503 9.64506C5.37606 8.69357 5.75423 7.78128 6.42667 7.10811C7.09911 6.43494 8.01099 6.05578 8.96248 6.05373ZM8.96248 1.00098C7.25378 1.00175 5.58367 1.50914 4.16331 2.459C2.74295 3.40887 1.63612 4.75855 0.982756 6.33741C0.329396 7.91627 0.158846 9.6534 0.492669 11.3292C0.826491 13.005 1.6497 14.5441 2.8582 15.7521C4.06671 16.9601 5.60625 17.7826 7.28218 18.1156C8.9581 18.4487 10.6952 18.2774 12.2737 17.6233C13.8523 16.9692 15.2015 15.8618 16.1507 14.441C17.0999 13.0202 17.6066 11.3499 17.6066 9.64118C17.6066 8.5062 17.3829 7.38235 16.9485 6.33382C16.514 5.28529 15.8773 4.33263 15.0745 3.53026C14.2718 2.72789 13.3189 2.09154 12.2701 1.65756C11.2214 1.22358 10.0975 1.00047 8.96248 1.00098Z" fill="white"/>
<path d="M24.8133 15.4248H0.72338C0.373488 15.4248 0.0898438 15.7084 0.0898438 16.0583V20.3337C0.0898438 20.6836 0.373488 20.9673 0.72338 20.9673H24.8133C25.1632 20.9673 25.4468 20.6836 25.4468 20.3337V16.0583C25.4468 15.7084 25.1632 15.4248 24.8133 15.4248Z" fill="white"/>
</g>
<defs>
<clipPath id="clip0_3105_105">
<rect width="107.487" height="28" fill="white" transform="translate(0 1)"/>
</clipPath>
</defs>
</svg>
