<svg width="88" height="89" viewBox="0 0 88 89" fill="none" xmlns="http://www.w3.org/2000/svg">
<g id="icons8:plus">
<path id="Vector" d="M44 9.2002C24.288 9.2002 8.25 25.2382 8.25 44.9502C8.25 64.6622 24.288 80.7002 44 80.7002C63.712 80.7002 79.75 64.6622 79.75 44.9502C79.75 25.2382 63.712 9.2002 44 9.2002ZM44 14.7002C60.7393 14.7002 74.25 28.2109 74.25 44.9502C74.25 61.6894 60.7393 75.2002 44 75.2002C27.2607 75.2002 13.75 61.6894 13.75 44.9502C13.75 28.2109 27.2607 14.7002 44 14.7002ZM41.25 28.4502V42.2002H27.5V47.7002H41.25V61.4502H46.75V47.7002H60.5V42.2002H46.75V28.4502H41.25Z" fill="black"/>
</g>
</svg>
