<svg width="26" height="28" viewBox="0 0 26 28" fill="none" xmlns="http://www.w3.org/2000/svg">
<path d="M24.7235 22.459H0.633536C0.283644 22.459 0 22.7426 0 23.0925V27.3679C0 27.7178 0.283644 28.0015 0.633536 28.0015H24.7235C25.0734 28.0015 25.357 27.7178 25.357 27.3679V23.0925C25.357 22.7426 25.0734 22.459 24.7235 22.459Z" fill="white"/>
<path d="M8.96248 5.05373C9.67294 5.05296 10.3677 5.26293 10.9588 5.65708C11.5499 6.05124 12.0108 6.61186 12.2832 7.26802C12.5556 7.92419 12.6273 8.64641 12.4892 9.34331C12.351 10.0402 12.0093 10.6805 11.5072 11.1831C11.0051 11.6858 10.3652 12.0282 9.66843 12.1671C8.97167 12.306 8.24938 12.2351 7.59292 11.9634C6.93646 11.6917 6.37534 11.2314 5.98055 10.6407C5.58576 10.05 5.37503 9.35553 5.37503 8.64506C5.37606 7.69357 5.75423 6.78128 6.42667 6.10811C7.09911 5.43494 8.01099 5.05578 8.96248 5.05373ZM8.96248 0.000977437C7.25378 0.00174608 5.58367 0.509138 4.16331 1.459C2.74295 2.40887 1.63612 3.75855 0.982756 5.33741C0.329396 6.91627 0.158846 8.6534 0.492669 10.3292C0.826491 12.005 1.6497 13.5441 2.8582 14.7521C4.06671 15.9601 5.60625 16.7826 7.28218 17.1156C8.9581 17.4487 10.6952 17.2774 12.2737 16.6233C13.8523 15.9692 15.2015 14.8618 16.1507 13.441C17.0999 12.0202 17.6066 10.3499 17.6066 8.64118C17.6066 7.5062 17.3829 6.38235 16.9485 5.33382C16.514 4.28529 15.8773 3.33263 15.0745 2.53026C14.2718 1.72789 13.3189 1.09154 12.2701 0.657558C11.2214 0.223576 10.0975 0.000466877 8.96248 0.000977437Z" fill="white"/>
<path d="M24.8133 14.4248H0.72338C0.373488 14.4248 0.0898438 14.7084 0.0898438 15.0583V19.3337C0.0898438 19.6836 0.373488 19.9673 0.72338 19.9673H24.8133C25.1632 19.9673 25.4468 19.6836 25.4468 19.3337V15.0583C25.4468 14.7084 25.1632 14.4248 24.8133 14.4248Z" fill="white"/>
</svg>
