<svg width="17" height="20" viewBox="0 0 17 20" fill="none" xmlns="http://www.w3.org/2000/svg">
<g id="instagram logo" clip-path="url(#clip0_2645_201)">
<path id="Vector" d="M8.6061 5.48148C6.33467 5.48148 4.50253 7.42666 4.50253 9.83823C4.50253 12.2498 6.33467 14.195 8.6061 14.195C10.8775 14.195 12.7097 12.2498 12.7097 9.83823C12.7097 7.42666 10.8775 5.48148 8.6061 5.48148ZM8.6061 12.6707C7.13824 12.6707 5.93824 11.4004 5.93824 9.83823C5.93824 8.27602 7.13467 7.00577 8.6061 7.00577C10.0775 7.00577 11.274 8.27602 11.274 9.83823C11.274 11.4004 10.074 12.6707 8.6061 12.6707ZM13.8347 5.30326C13.8347 5.86824 13.4061 6.31946 12.8775 6.31946C12.3454 6.31946 11.9204 5.86445 11.9204 5.30326C11.9204 4.74208 12.349 4.28706 12.8775 4.28706C13.4061 4.28706 13.8347 4.74208 13.8347 5.30326ZM16.5525 6.33463C16.4918 4.97338 16.1989 3.76759 15.2597 2.77414C14.324 1.7807 13.1882 1.46977 11.9061 1.40152C10.5847 1.32189 6.62396 1.32189 5.30253 1.40152C4.02396 1.46598 2.88824 1.7769 1.94896 2.77035C1.00967 3.7638 0.720389 4.96959 0.656103 6.33084C0.581104 7.7338 0.581104 11.9389 0.656103 13.3418C0.716818 14.7031 1.00967 15.9089 1.94896 16.9023C2.88824 17.8958 4.02039 18.2067 5.30253 18.275C6.62396 18.3546 10.5847 18.3546 11.9061 18.275C13.1882 18.2105 14.324 17.8996 15.2597 16.9023C16.1954 15.9089 16.4882 14.7031 16.5525 13.3418C16.6275 11.9389 16.6275 7.73759 16.5525 6.33463ZM14.8454 14.8472C14.5668 15.5904 14.0275 16.1629 13.324 16.4625C12.2704 16.9061 9.77038 16.8037 8.6061 16.8037C7.44181 16.8037 4.93824 16.9023 3.88824 16.4625C3.18824 16.1667 2.64896 15.5942 2.36682 14.8472C1.94896 13.7286 2.04539 11.0744 2.04539 9.83823C2.04539 8.60211 1.95253 5.94407 2.36682 4.82929C2.64539 4.0861 3.18467 3.51354 3.88824 3.21399C4.94181 2.77035 7.44181 2.87273 8.6061 2.87273C9.77038 2.87273 12.274 2.77414 13.324 3.21399C14.024 3.50975 14.5632 4.08231 14.8454 4.82929C15.2632 5.94787 15.1668 8.60211 15.1668 9.83823C15.1668 11.0744 15.2632 13.7324 14.8454 14.8472Z" fill="black"/>
</g>
<defs>
<clipPath id="clip0_2645_201">
<rect width="16" height="19.4139" fill="white" transform="translate(0.602539 0.134766)"/>
</clipPath>
</defs>
</svg>
