<svg width="19" height="16" viewBox="0 0 19 16" fill="none" xmlns="http://www.w3.org/2000/svg">
<g id="Twitter logo" clip-path="url(#clip0_2645_193)">
<path id="Vector" d="M18.6023 2.13087C17.9283 2.43769 17.2133 2.63909 16.4812 2.72836C17.2438 2.25875 17.8293 1.51511 18.105 0.629065C17.3801 1.07106 16.587 1.38248 15.76 1.54986C15.0863 0.812429 14.1266 0.351562 13.0644 0.351562C11.0249 0.351562 9.37139 2.05053 9.37139 4.146C9.37139 4.44344 9.40408 4.73301 9.46701 5.0108C6.39787 4.85251 3.67678 3.34189 1.85533 1.04615C1.53752 1.60657 1.35541 2.25846 1.35541 2.95377C1.35541 4.27027 2.00742 5.43164 2.99826 6.11214C2.41182 6.09327 1.83828 5.93052 1.32553 5.63748C1.32532 5.65337 1.32532 5.66927 1.32532 5.68523C1.32532 7.52372 2.59826 9.05738 4.28758 9.40598C3.74378 9.55794 3.17336 9.58018 2.61991 9.471C3.08981 10.9785 4.45366 12.0755 6.06958 12.1062C4.80572 13.1239 3.21335 13.7306 1.48324 13.7306C1.18512 13.7306 0.891209 13.7126 0.602295 13.6775C2.23657 14.7542 4.17769 15.3824 6.26315 15.3824C13.0558 15.3824 16.7702 9.60032 16.7702 4.58606C16.7702 4.42148 16.7667 4.25784 16.7595 4.09514C17.4825 3.55811 18.1065 2.89295 18.6023 2.13087Z" fill="black"/>
</g>
<defs>
<clipPath id="clip0_2645_193">
<rect width="18" height="15.0997" fill="white" transform="translate(0.602295 0.291992)"/>
</clipPath>
</defs>
</svg>
